# AST/ASF file generated using VICON BodyLanguage
# -----------------------------------------------
:version 1.10
:name VICON
:units
  mass 1.0
  length 0.45
  angle deg
:documentation
   .ast/.asf automatically generated from VICON data using
   VICON BodyBuilder and BodyLanguage model FoxedUp or BRILLIANT.MOD
:root
   order TX TY TZ RX RY RZ
   axis XYZ
   position 0 0 0  
   orientation 0 0 0 
:bonedata
  begin
     id 1 
     name lhipjoint
     direction 0.671379 -0.66392 0.329334 
     length 2.38647 
     axis 0 0 0  XYZ
  end
  begin
     id 2 
     name lfemur
     direction 0.34202 -0.939693 0  
     length 6.48179  
     axis 0 0 20  XYZ
    dof rx ry rz
    limits (-160.0 20.0)
           (-70.0 70.0)
           (-60.0 70.0)
  end
  begin
     id 3 
     name ltibia
     direction 0.34202 -0.939693 0   
     length 6.86524   
     axis 0 0 20   XYZ
    dof rx
    limits (-10.0 170.0)
  end
  begin
     id 4 
     name lfoot
     direction 0.204886 -0.562919 0.800715   
     length 1.73031   
     axis -90 7.62852e-016 20   XYZ
    dof rx rz
    limits (-45.0 90.0)
           (-70.0 20.0)
  end
  begin
     id 5 
     name ltoes
     direction 1.53548e-011 -4.21841e-011 1   
     length 0.828161   
     axis -90 7.62852e-016 20   XYZ
    dof rx
    limits (-90.0 20.0)
  end
  begin
     id 6 
     name rhipjoint
     direction -0.662732 -0.670855 0.332775   
     length 2.3618  
     axis 0 0 0  XYZ 
  end
  begin
     id 7 
     name rfemur
     direction -0.34202 -0.939693 0   
     length 6.3025   
     axis 0 0 -20   XYZ
    dof rx ry rz
    limits (-160.0 20.0)
           (-70.0 70.0)
           (-70.0 60.0)
  end
  begin
     id 8 
     name rtibia
     direction -0.34202 -0.939693 0   
     length 6.8732   
     axis 0 0 -20   XYZ
    dof rx
    limits (-10.0 170.0)
 end
 begin
     id 9 
     name rfoot
     direction -0.173856 -0.477665 0.861168   
     length 1.54784  
     axis -90 -7.62852e-016 -20   XYZ
    dof rx rz
    limits (-45.0 90.0)
           (-20.0 70.0)
  end
  begin
     id 10 
     name rtoes
     direction -1.53562e-011 -4.21802e-011 1   
     length 0.759618   
     axis -90 -7.62852e-016 -20   XYZ
    dof rx
    limits (-90.0 20.0)
  end
  begin
     id 11 
     name lowerback
     direction -0.0278357 0.999497 -0.0151789   
     length 1.97203   
     axis 0 0 0   XYZ
    dof rx ry rz
    limits (-20.0 45.0)
           (-30.0 30.0)
           (-30.0 30.0)
  end
  begin
     id 12 
     name upperback
     direction -0.00360622 0.997542 0.0699804   
     length 1.94709   
     axis 0 0 0   XYZ
    dof rx ry rz
    limits (-20.0 45.0)
           (-30.0 30.0)
           (-30.0 30.0)
  end
  begin
     id 13 
     name thorax
     direction 0.00907706 0.997048 0.0762461   
     length 1.95722   
     axis 0 0 0   XYZ
    dof rx ry rz
    limits (-20.0 45.0)
           (-30.0 30.0)
           (-30.0 30.0)
  end
  begin
     id 14 
     name lowerneck
     direction -0.0481835 0.99872 -0.0153927   
     length 1.63078   
     axis 0 0 0   XYZ
    dof rx ry rz
    limits (-20.0 45.0)
           (-30.0 30.0)
           (-30.0 30.0)
  end
  begin
     id 15 
     name upperneck
     direction 0.0859716 0.979226 -0.183644   
     length 1.62591   
     axis 0 0 0   XYZ
    dof rx ry rz
    limits (-20.0 45.0)
           (-30.0 30.0)
           (-30.0 30.0)
  end
  begin
     id 16
     name head
     direction 0.0324821 0.997629 -0.0606773  
     length 1.64811  
     axis 0 0 0   XYZ
    dof rx ry rz
    limits (-20.0 45.0)
           (-30.0 30.0)
           (-30.0 30.0)
  end
  begin
     id 17 
     name lclavicle
     direction 0.939609 0.311019 0.142835  
     length 3.70647  
     axis 0 0 0   XYZ
    dof ry rz
    limits (-20.0 10.0)
           (0.0 20.0)
  end
  begin
     id 18 
     name lhumerus
     direction 1 -4.48963e-011 -1.59838e-027   
     length 4.59207   
     axis 180 -30 -90   XYZ
    dof rx ry rz
    limits (-60.0 90.0)
           (-90.0 90.0)
           (-90.0 90.0)
  end
  begin
     id 19
     name lradius
     direction 1 -4.48957e-011 -1.3483e-026   
     length 2.98109   
     axis 180 -30 -90   XYZ
    dof rx
    limits (-10.0 170.0)
  end
  begin
     id 20
     name lwrist
     direction 1 -4.48954e-011 -3.11579e-026   
     length 1.49055   
     axis 2.00652e-014 90 90   XYZ
    dof ry
    limits (-180.0 0.0)
 end
  begin
     id 21 
     name lhand
     direction 1 -4.4911e-011 -6.23158e-026   
     length 0.480203   
     axis 3.97628e-014 90 90   XYZ
    dof rx rz
    limits (-90.0 90.0)
           (-45.0 45.0)
  end
  begin
     id 22 
     name lfingers
     direction 1 -4.48893e-011 -1.24632e-025   
     length 0.387152   
     axis 7.95256e-014 90 90   XYZ
    dof rx
    limits (0.0 90.0)
  end
  begin
     id 23
     name lthumb
     direction 0.707107 -6.35013e-011 0.707107   
     length 0.555875   
     axis -90 45 2.85299e-015   XYZ
    dof rx rz
    limits (-45.0 45.0)
           (-45.0 45.0)
  end
  begin
     id 24 
     name rclavicle
     direction -0.950396 0.30392 0.0661859   
     length 3.70894  
     axis 0 0 0   XYZ 
    dof ry rz
    limits (-10.0 20.0)
           (-20.0 0.0)
  end
  begin
     id 25 
     name rhumerus
     direction -1 -4.48957e-011 -2.96677e-027  
     length 4.76508   
     axis 180 30 90   XYZ
    dof rx ry rz
    limits (-90.0 60.0)
           (-90.0 90.0)
           (-90.0 90.0)
  end
  begin
     id 26 
     name rradius
     direction -1 -4.48974e-011 -1.44501e-026   
     length 2.78902   
     axis 180 30 90   XYZ
    dof rx
    limits (-10.0 170.0)
  end
  begin
     id 27 
     name rwrist
     direction -1 -4.48978e-011 -3.11579e-026   
     length 1.39451   
     axis 2.00652e-014 -90 -90   XYZ
    dof ry
    limits (-180.0 0.0)
  end
  begin
     id 28
     name rhand
     direction -1 -4.48956e-011 -6.23158e-026   
     length 0.721303   
     axis 3.97628e-014 -90 -90   XYZ
    dof rx rz
    limits (-90.0 90.0)
           (-45.0 45.0)
  end
  begin
     id 29
     name rfingers
     direction -1 -4.4899e-011 -1.24632e-025   
     length 0.581533   
     axis 7.95256e-014 -90 -90   XYZ
    dof rx
    limits (0.0 90.0)
  end
  begin
     id 30
     name rthumb
     direction -0.707107 -6.34911e-011 0.707107   
     length 0.834968   
     axis -90 -45 -2.85299e-015   XYZ
    dof rx rz
    limits (-45.0 45.0)
           (-45.0 45.0)
  end
:hierarchy
  begin
    root lhipjoint rhipjoint lowerback
    lhipjoint lfemur
    lfemur ltibia
    ltibia lfoot
    lfoot ltoes
    rhipjoint rfemur
    rfemur rtibia
    rtibia rfoot
    rfoot rtoes
    lowerback upperback
    upperback thorax
    thorax lowerneck lclavicle rclavicle
    lowerneck upperneck
    upperneck head
    lclavicle lhumerus
    lhumerus lradius
    lradius lwrist
    lwrist lhand lthumb
    lhand lfingers
    rclavicle rhumerus
    rhumerus rradius
    rradius rwrist
    rwrist rhand rthumb
    rhand rfingers
  end

#!OML:ASF I:\salsa\salsa 7_09\Patient 1\Session 1\dancerfemale.ASF
:FULLY-SPECIFIED
:DEGREES
1137
root 1.81712 15.6619 -1.96298 -317.258 -83.6491 -44.4258
lowerback 4.74211 3.29463 4.77162
upperback -6.07491 4.82146 0.619035
thorax -8.74337 2.02903 -2.57681
lowerneck 0.978072 -1.06187 -5.39448
upperneck 10.9623 -1.94631 4.95321
head 3.5211 -1.0855 2.54864
rclavicle 1.0635e-014 5.56597e-015
rhumerus -23.6322 4.27309 -64.269
rradius 111.901
rwrist -27.6145
rhand 9.54856 400.592
rfingers 7.12502
rthumb 34.698 13.9661
lclavicle 1.0635e-014 5.56597e-015
lhumerus -48.5795 33.1847 32.6233
lradius 80.7961
lwrist -19.5435
lhand -29.8395 34.2797
lfingers 7.12502
lthumb -3.16246 64.236
rfemur -20.229 -4.08438 30.1758
rtibia 30.3535
rfoot -20.247 -12.2299
rtoes 3.07291
lfemur -10.7025 1.53 -14.517
ltibia 64.4984
lfoot -7.75377 -6.95728
ltoes -2.33803
1138
root 1.97028 15.6609 -1.9443 -331.054 -84.3106 -30.2684
lowerback 4.21334 3.41415 3.0462
upperback -6.10967 4.77803 0.235612
thorax -8.56707 2.11345 -1.98794
lowerneck 0.924786 -0.852665 -4.80856
upperneck 11.2677 -1.67333 4.77003
head 3.60643 -0.935158 2.38808
rclavicle -1.23246e-014 -8.74653e-015
rhumerus -25.5308 6.75057 -63.3126
rradius 113.282
rwrist -29.7712
rhand 11.8774 400.393
rfingers 7.12502
rthumb 36.9048 14.3035
lclavicle -1.23246e-014 -8.74653e-015
lhumerus -45.487 33.8339 34.4255
lradius 82.0187
lwrist -20.0938
lhand -28.8229 34.8049
lfingers 7.12502
lthumb -2.18063 64.7735
rfemur -21.6308 -4.04152 28.2632
rtibia 31.0981
rfoot -20.5119 -12.248
rtoes 2.56756
lfemur -7.46929 0.412562 -16.8992
ltibia 58.9965
lfoot -13.3374 -7.25257
ltoes -5.27593
1139
root 2.15522 15.6606 -1.91827 -348.112 -84.1877 -12.638
lowerback 3.85519 3.36703 1.53144
upperback -6.24654 4.53841 -0.28961
thorax -8.58644 2.07323 -1.658
lowerneck 0.96978 -0.564293 -4.29141
upperneck 11.3369 -1.3212 4.95556
head 3.59639 -0.734247 2.36682
rclavicle 6.27663e-014 1.49089e-014
rhumerus -27.8874 9.40735 -62.7037
rradius 114.42
rwrist -32.1494
rhand 12.9657 399.702
rfingers 7.12502
rthumb 37.9334 13.8846
lclavicle 6.27663e-014 1.49089e-014
lhumerus -42.0003 32.7871 36.337
lradius 83.0504
lwrist -19.7075
lhand -27.8893 35.7294
lfingers 7.12502
lthumb -1.27902 65.7053
rfemur -23.3158 -4.33234 26.2812
rtibia 31.7985
rfoot -20.6432 -12.3389
rtoes 0.84476
lfemur -4.90409 -0.939096 -19.2883
ltibia 53.3726
lfoot -17.2498 -7.28573
ltoes -8.54051
1140
root 2.35172 15.6701 -1.90113 -358.98 -83.5851 -1.16589
lowerback 3.4896 3.23626 0.248519
upperback -6.33556 4.23063 -0.570803
thorax -8.55019 1.99436 -1.19029
lowerneck 0.611361 -0.375521 -3.64374
upperneck 11.8319 -1.04719 4.49255
head 3.80775 -0.585569 2.10553
rclavicle -4.01048e-014 -1.98785e-015
rhumerus -30.4421 11.9898 -62.6191
rradius 115.615
rwrist -34.1536
rhand 13.3308 398.568
rfingers 7.12502
rthumb 38.2782 12.8453
lclavicle -4.01048e-014 -1.98785e-015
lhumerus -38.9103 32.5476 38.2614
lradius 84.2274
lwrist -19.9549
lhand -26.9189 36.4915
lfingers 7.12502
lthumb -0.341745 66.4709
rfemur -24.9187 -4.11532 24.7646
rtibia 32.2315
rfoot -20.8934 -13.0558
rtoes -1.64733
lfemur -2.8417 -1.92231 -21.0014
ltibia 48.0511
lfoot -21.7711 -6.82381
ltoes -4.13073
1141
root 2.56341 15.6897 -1.88059 -364.727 -82.6432 4.89858
lowerback 3.51499 2.99377 -0.814384
upperback -6.32399 3.82253 -0.562962
thorax -8.63318 1.86343 -0.551
lowerneck 0.490374 -0.130288 -3.47325
upperneck 11.9497 -0.709699 4.38902
head 3.85273 -0.413127 2.05164
rclavicle 3.53837e-014 1.19271e-015
rhumerus -33.1742 14.8303 -62.7485
rradius 116.653
rwrist -35.8902
rhand 12.8336 397.846
rfingers 7.12502
rthumb 37.8087 11.9949
lclavicle 3.53837e-014 1.19271e-015
lhumerus -36.1133 32.9933 40.4876
lradius 85.3584
lwrist -20.81
lhand -25.8748 36.557
lfingers 7.12502
lthumb 0.666711 66.5358
rfemur -25.9357 -3.98031 23.5646
rtibia 32.1895
rfoot -21.1466 -14.0705
rtoes -4.74852
lfemur -1.18797 -2.54449 -22.2037
ltibia 43.4351
lfoot -24.6374 -5.9793
ltoes -4.20621
1142
root 2.79359 15.7137 -1.8655 -365.41 -81.5384 5.70246
lowerback 3.90898 2.67036 -1.31013
upperback -6.2772 3.35873 -0.42466
thorax -8.8533 1.67469 -0.0982676
lowerneck 0.348917 0.122424 -3.3005
upperneck 12.1129 -0.361188 4.25825
head 3.91834 -0.236425 1.98972
rclavicle 4.76089e-014 3.27995e-015
rhumerus -36.2057 17.3378 -63.4349
rradius 117.483
rwrist -37.4383
rhand 12.9365 398.052
rfingers 7.12502
rthumb 37.9059 12.2268
lclavicle 4.76089e-014 3.27995e-015
lhumerus -33.4302 33.7101 42.8084
lradius 86.6007
lwrist -21.8377
lhand -24.4272 35.6313
lfingers 7.12502
lthumb 2.06475 65.6011
rfemur -26.5818 -3.85946 22.9129
rtibia 31.8701
rfoot -21.4239 -15.1968
rtoes -7.92988
lfemur -0.128341 -2.8679 -22.6714
ltibia 39.6222
lfoot -26.5483 -5.55177
ltoes -1.4561
1143
root 3.03571 15.7363 -1.85197 -367.532 -80.3345 7.97906
lowerback 4.32897 2.40663 -1.94266
upperback -6.18122 2.94472 -0.477531
thorax -9.02425 1.51357 0.229872
lowerneck 0.0699023 0.262189 -3.18314
upperneck 12.3578 -0.170712 4.20294
head 4.0497 -0.136279 1.96188
rclavicle 7.77745e-015 -1.47101e-014
rhumerus -39.6185 19.1796 -64.5523
rradius 118.169
rwrist -39.1495
rhand 14.5634 398.952
rfingers 7.12502
rthumb 39.4405 13.5596
lclavicle 7.77745e-015 -1.47101e-014
lhumerus -30.4269 31.9685 44.8099
lradius 87.5346
lwrist -21.2846
lhand -23.6789 36.8595
lfingers 7.12502
lthumb 2.78745 66.821
rfemur -27.1151 -3.93678 21.9287
rtibia 31.3569
rfoot -22.1228 -15.9925
rtoes -11.8041
lfemur 0.397726 -3.14735 -23.4706
ltibia 36.564
lfoot -27.513 -4.97272
ltoes 2.54706
1144
root 3.29456 15.7571 -1.8236 -373.646 -78.7716 14.5435
lowerback 4.6548 2.21795 -3.26602
upperback -6.10518 2.53148 -0.888224
thorax -9.17454 1.384 0.572685
lowerneck -0.329983 0.249918 -3.36656
upperneck 12.5931 -0.19871 4.41998
head 4.21759 -0.144791 2.07681
rclavicle 9.6659e-015 -1.98785e-016
rhumerus -43.5965 20.6217 -66.062
rradius 118.787
rwrist -40.9726
rhand 15.9588 398.558
rfingers 7.12502
rthumb 40.7534 13.5641
lclavicle 9.6659e-015 -1.98785e-016
lhumerus -27.2274 31.4913 47.5658
lradius 88.3156
lwrist -22.0416
lhand -22.934 37.4347
lfingers 7.12502
lthumb 3.50683 67.3856
rfemur -27.9579 -4.8271 19.9093
rtibia 30.9324
rfoot -23.1112 -16.3128
rtoes -16.6119
lfemur 0.342344 -3.62824 -25.4303
ltibia 34.0496
lfoot -27.9909 -4.18633
ltoes 4.75032
1145
root 3.54769 15.7821 -1.80516 -375.082 -77.5186 16.0671
lowerback 5.22807 2.09754 -3.8262
upperback -5.95289 2.28606 -1.06436
thorax -9.35848 1.29662 0.712281
lowerneck -0.6754 0.179707 -3.52615
upperneck 12.7942 -0.304728 4.6216
head 4.36748 -0.191734 2.17904
rclavicle 1.73191e-014 -1.98785e-016
rhumerus -48.1682 21.5793 -68.2324
rradius 119.295
rwrist -42.3396
rhand 17.1016 397.619
rfingers 7.12502
rthumb 41.8261 12.9714
lclavicle 1.73191e-014 -1.98785e-016
lhumerus -24.0407 30.5405 50.3944
lradius 89.1913
lwrist -22.7844
lhand -22.0357 38.1123
lfingers 7.12502
lthumb 4.37431 68.0471
rfemur -28.4515 -5.12843 18.7892
rtibia 30.5325
rfoot -24.1263 -17.1663
rtoes -19.7563
lfemur 0.271229 -3.91714 -26.3212
ltibia 32.0719
lfoot -28.2132 -4.00948
ltoes 6.44389
1146
root 3.8012 15.8064 -1.77975 -376.309 -76.3055 17.5161
lowerback 5.66728 2.00991 -4.2439
upperback -5.85461 2.08727 -1.31938
thorax -9.51237 1.21851 0.688369
lowerneck -0.837554 0.0789144 -3.74787
upperneck 12.8291 -0.457269 4.90701
head 4.42603 -0.262224 2.31587
rclavicle -6.45553e-014 -1.20265e-014
rhumerus -53.3684 21.9206 -71.2854
rradius 119.83
rwrist -43.9471
rhand 17.2363 396.75
rfingers 7.12502
rthumb 41.9523 12.1438
lclavicle -6.45553e-014 -1.20265e-014
lhumerus -20.8712 29.2566 53.2455
lradius 90.1366
lwrist -23.6397
lhand -20.9141 39.0375
lfingers 7.12502
lthumb 5.45733 68.9472
rfemur -29.1705 -5.43015 17.6114
rtibia 30.3616
rfoot -24.6407 -18.1045
rtoes -20.7769
lfemur -0.185539 -4.14486 -27.2029
ltibia 30.5394
lfoot -28.0693 -4.30627
ltoes 8.74958
1147
root 4.04799 15.8256 -1.76433 -375.142 -75.3587 16.3774
lowerback 6.22062 1.98057 -3.99555
upperback -5.74365 2.04366 -1.42828
thorax -9.70087 1.17835 0.423586
lowerneck -1.00496 -0.113617 -4.17776
upperneck 13.1699 -0.775602 5.52298
head 4.12004 -0.386718 2.34765
rclavicle -5.54112e-014 -7.45443e-015
rhumerus -58.2776 21.0764 -74.0765
rradius 120.008
rwrist -44.4385
rhand 19.5449 396.814
rfingers 7.12502
rthumb 44.1109 12.9724
lclavicle -5.54112e-014 -7.45443e-015
lhumerus -17.7116 27.7713 56.2647
lradius 91.0445
lwrist -24.4348
lhand -20.0557 39.8944
lfingers 7.12502
lthumb 6.28602 69.7811
rfemur -29.5502 -5.3614 17.1663
rtibia 30.0466
rfoot -24.7297 -20.0456
rtoes -20.3331
lfemur -0.932619 -3.95782 -27.2549
ltibia 29.7899
lfoot -28.0279 -5.06292
ltoes 9.86239
1148
root 4.31601 15.8327 -1.7288 -376.54 -74.2417 18.252
lowerback 6.64721 1.96025 -4.13008
upperback -5.7489 1.94138 -1.80959
thorax -9.94983 1.12265 0.0918388
lowerneck -1.29869 -0.348114 -4.80921
upperneck 13.2673 -1.10272 5.96665
head 4.21854 -0.549788 2.5775
rclavicle 3.35201e-014 1.97791e-014
rhumerus -63.0858 20.1086 -77.3926
rradius 119.974
rwrist -45.9421
rhand 20.1104 396.595
rfingers 7.12502
rthumb 44.6379 12.9539
lclavicle 3.35201e-014 1.97791e-014
lhumerus -14.8182 26.3081 59.3814
lradius 91.9528
lwrist -25.0808
lhand -19.5589 40.7541
lfingers 7.12502
lthumb 6.76567 70.626
rfemur -30.4865 -6.25684 16.0056
rtibia 30.0707
rfoot -24.3767 -21.8186
rtoes -20.5367
lfemur -2.41801 -3.60478 -28.2717
ltibia 29.6233
lfoot -27.8687 -5.8192
ltoes 9.95749
